<svg xmlns="http://www.w3.org/2000/svg" viewBox="0 0 100 100"><defs><linearGradient id="shieldGrad" x1="50%" y1="0%" x2="50%" y2="100%"><stop offset="0%" style="stop-color:#1a5276;stop-opacity:1" /><stop offset="100%" style="stop-color:#0e2f44;stop-opacity:1" /></linearGradient></defs><path d="M50 8 L88 28 L88 55 C88 78 70 90 50 95 C30 90 12 78 12 55 L12 28 Z" fill="url(#shieldGrad)" stroke="#f1c40f" stroke-width="2"/><rect x="44" y="38" width="20" height="6" rx="2" fill="#f1c40f"/><circle cx="42" cy="41" r="8" fill="none" stroke="#f1c40f" stroke-width="3"/><circle cx="42" cy="41" r="3" fill="#f1c40f"/><rect x="60" y="44" width="4" height="5" rx="1" fill="#f1c40f"/><rect x="56" y="44" width="4" height="3" rx="1" fill="#f1c40f"/><polygon points="50,15 53,22 61,22 55,27 57,35 50,30 43,35 45,27 39,22 47,22" fill="#f1c40f" opacity="0.9"/></svg>